<?xml version="1.0" encoding="utf-8"?>
<!-- Generator: Adobe Illustrator 23.0.3, SVG Export Plug-In . SVG Version: 6.00 Build 0)  -->
<svg version="1.1" xmlns="http://www.w3.org/2000/svg" xmlns:xlink="http://www.w3.org/1999/xlink"
    x="0px" y="0px"
    viewBox="212 288 168 117" fill="#cb9d1f" style="enable-background:new 200 250 200 200;"
    xml:space="preserve">
<g id="Calque_2">
</g>
<g id="Calque_1">
	<g>
		<g>
			<g>
				<g>
					<g>
						<path d="M285.2,368.3c2.7,3.9,1.2,9.6,1.2,9.6s-5.8-0.7-8.4-4.6c-2.7-3.9-1.2-9.6-1.2-9.6S282.6,364.4,285.2,368.3z"/>
					</g>
					<path d="M293.6,329.1l0,53.6c-0.4,5.8-2.9,10.9-7.1,15.1c-4.2,4.2-9.5,6.5-15,7v-4.6c4.3-0.5,8.4-2.3,11.7-5.6
						c3.6-3.5,5.6-7.4,5.8-12.3l0-52.5h0v-0.7c0-19.8-16.1-35.8-35.8-35.8c-19.8,0-35.8,16.1-35.8,35.8c0,19.5,15.7,35.4,35.1,35.8
						h0.3c4.8,0,9.6-1.8,13.2-5.4c7.3-7.3,7.2-19.5-0.3-27c-5.5-4.7-11.6-5.6-13.2-5.7c-1.5-0.1-11.4-1.4-17,9.3
						c0.2-0.8,4.2-13.7,17-13.9c6.2,0.2,12,2.7,16.4,7.1c9.3,9.3,9.4,24.3,0.3,33.4c-4.4,4.4-10,6.6-15.8,6.8h-0.9
						c-21.9-0.4-39.6-18.4-39.6-40.4c0-22.3,18.1-40.4,40.4-40.4C275.4,288.7,293.6,306.8,293.6,329.1L293.6,329.1z"/>
				</g>
				<g>
					<g>
						<path d="M306.9,368.3c-2.7,3.9-1.2,9.6-1.2,9.6s5.8-0.7,8.4-4.6c2.7-3.9,1.2-9.6,1.2-9.6S309.6,364.4,306.9,368.3z"/>
					</g>
					<path d="M298.6,329.1l0,53.6c0.4,5.8,2.9,10.9,7.1,15.1c4.2,4.2,9.5,6.5,15,7v-4.6c-4.3-0.5-8.4-2.3-11.7-5.6
						c-3.6-3.5-5.6-7.4-5.8-12.3l0-52.5h0v-0.7c0-19.8,16.1-35.8,35.8-35.8c19.8,0,35.8,16.1,35.8,35.8c0,19.5-15.7,35.4-35.1,35.8
						h-0.3c-4.8,0-9.6-1.8-13.2-5.4c-7.3-7.3-7.2-19.5,0.3-27c5.5-4.7,11.6-5.6,13.2-5.7c1.5-0.1,11.4-1.4,17,9.3
						c-0.2-0.8-4.2-13.7-17-13.9c-6.2,0.2-12,2.7-16.4,7.1c-9.3,9.3-9.4,24.3-0.3,33.4c4.4,4.4,10,6.6,15.8,6.8h0.9
						c21.9-0.4,39.6-18.4,39.6-40.4c0-22.3-18.1-40.4-40.4-40.4C316.7,288.7,298.6,306.8,298.6,329.1L298.6,329.1z"/>
				</g>
			</g>
		</g>
	</g>
</g>
</svg>