<?xml version="1.0" encoding="utf-8"?>
<!-- Generator: Adobe Illustrator 23.0.3, SVG Export Plug-In . SVG Version: 6.00 Build 0)  -->
<svg version="1.1" xmlns="http://www.w3.org/2000/svg" xmlns:xlink="http://www.w3.org/1999/xlink" x="0px" y="0px"
	 viewBox="0 0 595.3 841.9" style="enable-background:new 0 0 595.3 841.9;" xml:space="preserve">
<g id="Calque_2">
</g>
<g id="Calque_1">
	<g>
		<g>
			<g>
				<path d="M302.4,438.1c1.7,0.2,3.3,0.4,4.7,0.8c3.4,0.8,6,2.1,7.8,4c1.8,1.9,2.7,4.4,2.7,7.7c0,3.2-0.9,5.7-2.7,7.6
					c-1.8,1.9-4.4,3.2-7.8,4c-3.4,0.8-7.5,1.2-12.2,1.2h-20.1v-0.8c2.2,0,3.7-0.2,4.4-0.6c0.7-0.4,1.1-1.1,1.1-2.1v-40.9
					c0-1-0.4-1.7-1.1-2.1c-0.7-0.4-2.2-0.6-4.4-0.6v-0.8h20.1c6.8,0,12,0.9,15.4,2.7c3.5,1.8,5.2,4.8,5.2,9c0,4.1-1.7,7.1-5.2,8.9
					C308.2,436.9,305.6,437.7,302.4,438.1z M289,437.7h5.9c7.1,0,10.7-3.6,10.7-10.7c0-7.2-3.6-10.8-10.7-10.8H289V437.7z
					 M294.8,438.5H289v23.9h5.9c3.9,0,7-1,9.3-3c2.3-2,3.5-5,3.5-8.9c0-4-1.2-6.9-3.5-9C301.9,439.6,298.8,438.5,294.8,438.5z"/>
				<path d="M332.4,451.1c0.2,0.6,0.5,1.2,0.8,1.7c1.1,2.4,2.7,4.1,4.5,5.1c1.9,1,3.9,1.5,6,1.5c3.8,0,6.7-1.4,8.5-4.1l0.6,0.3
					c-1.4,2.7-3.2,4.8-5.6,6c-2.4,1.3-5,1.9-7.9,1.9c-5,0-9-1.7-12.1-5.1c-3.1-3.4-4.7-7.6-4.7-12.8c0-5,1.5-9.1,4.5-12.3
					c3-3.2,7-4.8,12.1-4.8c3.9,0,7.1,1,9.7,2.9c2.5,1.9,3.8,4.6,3.8,8c0,3.9-1.8,6.7-5.4,8.6C343.9,450,338.9,451,332.4,451.1z
					 M332.2,450.3c2.8-0.1,5.1-0.6,6.9-1.6c2-1.1,3.4-2.6,4.4-4.4c1-1.8,1.4-3.8,1.4-5.9c0-1.3-0.2-2.7-0.6-4.1
					c-0.4-1.4-1-2.6-1.9-3.5c-0.9-0.9-2.1-1.4-3.7-1.4c-2.1,0-3.9,1.1-5.3,3.4c-1.4,2.3-2.1,5.8-2.1,10.7
					C331.4,446.1,331.7,448.4,332.2,450.3z M336.9,427.3H336l3.9-10.3h9C343.4,419.7,339.4,423.1,336.9,427.3z"/>
				<path d="M373,463.2h-18.3v-0.7c2.2,0,3.6-0.2,4.2-0.6c0.6-0.4,0.9-1.1,0.9-2.1V417c0-1-0.3-1.7-0.9-2.1c-0.6-0.4-2-0.6-4.2-0.6
					v-0.7c2.9,0,5.5-0.1,7.9-0.4c2.3-0.3,3.9-0.7,4.5-1.3h0.7v47.9c0,1,0.3,1.7,0.9,2.1c0.6,0.4,2,0.6,4.2,0.6V463.2z"/>
				<path d="M393.1,463.2h-18.3v-0.7c2.2,0,3.6-0.2,4.2-0.6c0.6-0.4,0.9-1.1,0.9-2.1v-25.6c0-1-0.3-1.7-0.9-2.1
					c-0.6-0.4-2-0.6-4.2-0.6v-0.7c2.9,0,5.5-0.1,7.9-0.4c2.3-0.3,3.9-0.7,4.5-1.3h0.7v30.8c0,1,0.3,1.7,0.9,2.1
					c0.6,0.4,2,0.6,4.2,0.6V463.2z M383.2,424.4c-1.4,0-2.6-0.4-3.4-1.3c-0.9-0.9-1.3-2-1.3-3.4c0-1.5,0.4-2.6,1.3-3.5
					c0.9-0.8,2-1.3,3.4-1.3c1.4,0,2.6,0.4,3.4,1.3c0.9,0.8,1.3,2,1.3,3.5C387.9,422.6,386.4,424.1,383.2,424.4z"/>
				<path d="M406.9,451.1c0.2,0.6,0.5,1.2,0.8,1.7c1.1,2.4,2.7,4.1,4.5,5.1c1.9,1,3.9,1.5,6,1.5c3.8,0,6.7-1.4,8.5-4.1l0.6,0.3
					c-1.4,2.7-3.2,4.8-5.6,6c-2.4,1.3-5,1.9-7.9,1.9c-5,0-9-1.7-12.1-5.1c-3.1-3.4-4.7-7.6-4.7-12.8c0-5,1.5-9.1,4.5-12.3
					c3-3.2,7-4.8,12.1-4.8c3.9,0,7.1,1,9.7,2.9c2.5,1.9,3.8,4.6,3.8,8c0,3.9-1.8,6.7-5.4,8.6C418.4,450,413.5,451,406.9,451.1z
					 M406.7,450.3c2.8-0.1,5.1-0.6,6.9-1.6c2-1.1,3.4-2.6,4.4-4.4c1-1.8,1.4-3.8,1.4-5.9c0-1.3-0.2-2.7-0.6-4.1
					c-0.4-1.4-1-2.6-1.9-3.5c-0.9-0.9-2.1-1.4-3.7-1.4c-2.1,0-3.9,1.1-5.3,3.4c-1.4,2.3-2.1,5.8-2.1,10.7
					C405.9,446.1,406.2,448.4,406.7,450.3z"/>
				<path d="M443,444.2c0.2-5,1.1-8.8,2.7-11.5c1.6-2.7,4.2-4.1,7.9-4.1c1.2,0,2.4,0.1,3.6,0.4s2.1,0.5,2.9,0.8
					c-0.8,2.2-1.2,5.6-1.2,10H458c-0.3-1.6-1-3-2.2-4.2c-1.1-1.2-2.5-1.8-4.3-1.8c-2.1,0-4,1.1-5.6,3.2c-1.6,2.1-2.4,5.2-2.4,9.2
					v13.7c0,1,0.3,1.7,0.9,2.1c0.6,0.4,2,0.6,4.2,0.6v0.7h-18.3v-0.7c2.2,0,3.6-0.2,4.2-0.6c0.6-0.4,0.9-1.1,0.9-2.1v-25.6
					c0-1-0.3-1.7-0.9-2.1c-0.6-0.4-2-0.6-4.2-0.6v-0.7c2.9,0,5.5-0.1,7.9-0.4c2.3-0.3,3.9-0.7,4.5-1.3h0.7L443,444.2z"/>
				<path d="M476.2,463.7c-2.9,0-5.6-0.5-8.1-1.4c-0.9-0.4-1.6-0.6-2.3-0.6c-1.1,0-1.6,0.6-1.5,1.9h-0.7c0-2.6-0.1-4.7-0.4-6.5
					c-0.3-1.8-0.6-3.7-1.2-5.6l0.8-0.3c1.2,3.7,3,6.6,5.3,8.7c2.3,2.1,4.8,3.1,7.5,3.1c2.1,0,3.6-0.5,4.7-1.6c1.1-1,1.6-2.3,1.6-3.8
					c0-1.4-0.4-2.6-1.3-3.6c-0.9-1-2-2-3.5-2.8c-1.4-0.8-2.9-1.6-4.5-2.5c-1.8-0.9-3.5-1.8-5.1-2.8c-1.6-1-3-2.1-4-3.4
					c-1.1-1.3-1.6-2.9-1.6-4.8c0-2.8,1.3-5,3.8-6.6c2.6-1.6,5.9-2.5,10-2.5l12.6,0.8c-0.6,2.8-1,6.1-1,9.9h-0.7
					c-0.7-2.9-2-5.2-4-7.1c-2-1.9-4.2-2.8-6.7-2.8c-1.7,0-3.2,0.5-4.3,1.4c-1.1,1-1.7,2.1-1.7,3.4c0,1.1,0.4,2.2,1.2,3.1
					c0.8,0.9,1.8,1.8,3.1,2.6c1.3,0.8,2.7,1.6,4.2,2.4c1.9,1,3.7,2.1,5.4,3.2c1.7,1.1,3.2,2.4,4.3,3.9c1.2,1.5,1.7,3.3,1.7,5.3
					c0,2.9-1.2,5.1-3.7,6.7C483.8,462.9,480.5,463.7,476.2,463.7z"/>
			</g>
		</g>
		<g>
			<g>
				<path d="M164.3,451.1c0.2,0.6,0.5,1.2,0.8,1.7c1.1,2.4,2.7,4.1,4.5,5.1c1.9,1,3.9,1.5,6,1.5c3.8,0,6.7-1.4,8.5-4.1l0.6,0.3
					c-1.4,2.7-3.2,4.8-5.6,6c-2.4,1.3-5,1.9-7.9,1.9c-5,0-9-1.7-12.1-5.1c-3.1-3.4-4.7-7.6-4.7-12.8c0-5,1.5-9.1,4.5-12.3
					c3-3.2,7-4.8,12.1-4.8c3.9,0,7.1,1,9.7,2.9c2.5,1.9,3.8,4.6,3.8,8c0,3.9-1.8,6.7-5.4,8.6C175.8,450.1,170.8,451,164.3,451.1z
					 M164.1,450.4c2.8-0.1,5.1-0.6,6.9-1.6c2-1.1,3.4-2.6,4.4-4.4c1-1.8,1.4-3.8,1.4-5.9c0-1.3-0.2-2.7-0.6-4.1
					c-0.4-1.4-1-2.6-1.9-3.5c-0.9-0.9-2.1-1.4-3.7-1.4c-2.1,0-3.9,1.1-5.3,3.4c-1.4,2.3-2.1,5.8-2.1,10.7
					C163.3,446.2,163.5,448.5,164.1,450.4z"/>
				<path d="M205,463.7c-2.8,0-5.1-0.6-6.9-1.9c-1.8-1.3-3.1-3-4-5.3c-0.9-2.2-1.3-4.8-1.3-7.6v-14.7c0-1-0.3-1.8-0.9-2.1
					c-0.6-0.4-2-0.5-4.2-0.5v-0.8c2.9,0,5.5-0.1,7.9-0.4c2.3-0.3,3.9-0.7,4.5-1.3h0.7v19.8c0,3.1,0.3,5.7,1,7.6
					c0.7,1.9,1.6,3.3,2.7,4.1c1.1,0.8,2.4,1.3,3.7,1.3c2.4,0,4.3-1.1,5.6-3.3c1.3-2.2,1.9-4.7,1.9-7.5v-16.8c0-1-0.3-1.8-0.9-2.2
					c-0.6-0.4-2-0.6-4.2-0.6v-0.7c2.9,0,5.5-0.1,7.9-0.4c2.3-0.3,3.9-0.7,4.6-1.3h0.7v26.7c0,1.1,0.2,1.9,0.6,2.4
					c0.4,0.5,0.9,0.7,1.4,0.7c0.7,0,1.3-0.3,1.8-0.9c0.5-0.6,0.9-1.5,1.3-2.6l0.6,0.3c-0.5,1.3-1,2.6-1.6,3.8
					c-0.6,1.2-1.4,2.2-2.4,2.9c-1,0.8-2.3,1.2-3.9,1.2c-2,0-3.5-0.7-4.5-2.1c-1-1.4-1.5-3-1.5-4.8c-0.7,2.1-1.9,3.7-3.7,5
					C210.2,463.1,207.9,463.7,205,463.7z"/>
				<path d="M266.9,463.3H248v-0.7c1.1,0,2-0.3,2.5-0.9c0.5-0.6,0.8-1.2,0.8-1.9c0-1-0.3-1.9-1-2.9l-4-7.1l-5.7,6.7
					c-1.1,1.3-1.6,2.5-1.6,3.4c0,0.5,0.2,1.1,0.6,1.7c0.4,0.6,1.2,1,2.4,1v0.8h-12v-0.8c1.1,0,2.4-0.4,3.9-1.1
					c1.5-0.7,2.9-1.8,4.2-3.3l7.7-9.1l-7.9-13.9c-0.8-1.4-1.7-2.4-2.7-3c-1-0.6-2.6-0.9-4.8-0.9v-0.7c2.9,0,5.5-0.1,7.8-0.4
					c2.3-0.3,3.8-0.7,4.4-1.3h0.8l8.3,14.5c2-2.1,3.4-3.7,4.2-4.8c0.8-1.2,1.2-2.4,1.2-3.8c0-1.1-0.3-2-0.9-2.6
					c-0.6-0.6-1.3-0.9-2.2-0.9v-0.7c4.9,0,8.6-0.6,11.2-1.7l0.4,0.3L252.2,444l6.7,11.7c1.1,2.1,2.3,3.7,3.6,5
					c1.3,1.3,2.8,1.9,4.4,1.9V463.3z"/>
				<path d="M146.8,426.1c-2.1-3.2-4.8-5.6-8.1-7.2c-0.4-0.2-0.8-0.4-1.2-0.6c-0.9-0.4-1.8-0.7-2.8-1c-3.2-1-6.6-1.5-10.3-1.5H104
					v0.8c2.2,0,3.7,0.2,4.4,0.6c0.7,0.4,1.1,1.1,1.1,2.1v40.9c0,1-0.4,1.7-1.1,2.1c-0.7,0.4-2.2,0.6-4.4,0.6v0.7h20.5
					c4.8,0,9.1-0.8,13-2.5c3.9-1.7,7-4.3,9.3-7.8c2.3-3.5,3.4-8.1,3.4-13.6C150.3,434.2,149.1,429.7,146.8,426.1z M138.3,452.6
					c-1.4,3.4-3.2,6-5.6,7.8c-2.4,1.7-5.1,2.6-8.1,2.6h-6.1v-46.3h6.1c3.1,0,5.8,0.9,8.1,2.6c0.1,0,0.1,0.1,0.2,0.1
					c1,0.8,2,1.7,2.8,2.9c1,1.3,1.9,2.9,2.6,4.7c1.4,3.4,2,7.7,2,12.9C140.3,444.9,139.6,449.1,138.3,452.6z"/>
			</g>
		</g>
		<g>
			<g>
				<path d="M159.9,477.9h3.6c0.9,0,1.6,0.1,2.1,0.3c0.5,0.2,0.9,0.5,1.1,1c0.3,0.4,0.4,0.9,0.4,1.5c0,0.5-0.1,1-0.4,1.4
					c-0.2,0.4-0.6,0.7-1.1,1c0.6,0.2,1.1,0.4,1.4,0.7c0.3,0.3,0.6,0.6,0.7,1s0.3,0.8,0.3,1.3c0,0.9-0.3,1.7-1,2.3s-1.6,0.9-2.7,0.9
					h-4.5V477.9z M161,479v3.6h2c0.8,0,1.4-0.1,1.7-0.2s0.7-0.4,0.9-0.7c0.2-0.3,0.3-0.7,0.3-1.1c0-0.5-0.2-0.9-0.5-1.2
					c-0.4-0.3-0.9-0.4-1.7-0.4H161z M161,483.8v4.4h2.8c0.8,0,1.4-0.1,1.8-0.2c0.4-0.2,0.7-0.4,0.9-0.8s0.4-0.7,0.4-1.1
					c0-0.5-0.2-0.9-0.5-1.3c-0.3-0.4-0.8-0.6-1.4-0.8c-0.4-0.1-1.1-0.1-2-0.1H161z"/>
				<path d="M176.3,477.9h2.3c1.3,0,2.1,0.1,2.6,0.2c0.7,0.2,1.2,0.5,1.7,1c0.4,0.5,0.6,1.1,0.6,1.9c0,0.6-0.1,1.2-0.4,1.6
					c-0.3,0.5-0.7,0.8-1.3,1.1c-0.5,0.2-1,0.4-1.4,0.4l3.3,5.3h-1.4L179,484h-1.5v5.3h-1.1V477.9z M177.5,479v3.9l2,0
					c0.8,0,1.3-0.1,1.7-0.2c0.4-0.1,0.6-0.4,0.9-0.7c0.2-0.3,0.3-0.7,0.3-1.1c0-0.4-0.1-0.7-0.3-1c-0.2-0.3-0.5-0.5-0.8-0.7
					c-0.3-0.1-0.9-0.2-1.7-0.2H177.5z"/>
				<path d="M196.7,477.9l5.3,11.4h-1.2l-1.8-3.8h-4.9l-1.8,3.8h-1.3l5.4-11.4H196.7z M196.6,480.3l-2,4.1h3.9L196.6,480.3z"/>
				<path d="M209,487l1-0.6c0.7,1.3,1.5,1.9,2.4,1.9c0.4,0,0.7-0.1,1.1-0.3c0.3-0.2,0.6-0.4,0.8-0.7s0.3-0.6,0.3-1
					c0-0.4-0.1-0.8-0.4-1.1c-0.4-0.5-1-1-2-1.6c-1-0.7-1.5-1.2-1.8-1.6c-0.4-0.5-0.6-1.1-0.6-1.7c0-0.5,0.1-0.9,0.4-1.4
					c0.2-0.4,0.6-0.7,1-1c0.4-0.2,0.9-0.4,1.4-0.4c0.5,0,1,0.1,1.5,0.4c0.5,0.3,1,0.8,1.5,1.5l-0.9,0.7c-0.4-0.6-0.8-0.9-1.1-1.1
					c-0.3-0.2-0.6-0.3-1-0.3c-0.5,0-0.8,0.1-1.1,0.4c-0.3,0.3-0.4,0.6-0.4,1c0,0.2,0.1,0.5,0.2,0.7c0.1,0.2,0.3,0.5,0.6,0.8
					c0.1,0.1,0.6,0.5,1.5,1.1c1,0.7,1.7,1.3,2,1.8c0.4,0.5,0.5,1,0.5,1.6c0,0.8-0.3,1.5-0.9,2.2s-1.4,0.9-2.3,0.9
					c-0.7,0-1.3-0.2-1.9-0.6C210,488.5,209.5,487.9,209,487z"/>
				<path d="M223.1,487l1-0.6c0.7,1.3,1.5,1.9,2.4,1.9c0.4,0,0.7-0.1,1.1-0.3c0.3-0.2,0.6-0.4,0.8-0.7s0.3-0.6,0.3-1
					c0-0.4-0.1-0.8-0.4-1.1c-0.4-0.5-1-1-2-1.6c-1-0.7-1.5-1.2-1.8-1.6c-0.4-0.5-0.6-1.1-0.6-1.7c0-0.5,0.1-0.9,0.4-1.4
					c0.2-0.4,0.6-0.7,1-1c0.4-0.2,0.9-0.4,1.4-0.4c0.5,0,1,0.1,1.5,0.4c0.5,0.3,1,0.8,1.5,1.5l-0.9,0.7c-0.4-0.6-0.8-0.9-1.1-1.1
					c-0.3-0.2-0.6-0.3-1-0.3c-0.5,0-0.8,0.1-1.1,0.4c-0.3,0.3-0.4,0.6-0.4,1c0,0.2,0.1,0.5,0.2,0.7c0.1,0.2,0.3,0.5,0.6,0.8
					c0.1,0.1,0.6,0.5,1.5,1.1c1,0.7,1.7,1.3,2,1.8c0.4,0.5,0.5,1,0.5,1.6c0,0.8-0.3,1.5-0.9,2.2s-1.4,0.9-2.3,0.9
					c-0.7,0-1.3-0.2-1.9-0.6C224.1,488.5,223.6,487.9,223.1,487z"/>
				<path d="M238.1,477.9h6.5v1.1h-5.4v3.6h3.3v1.1h-3.3v4.5h5.3v1.1h-6.5V477.9z"/>
				<path d="M253.1,477.9h2.3c1.3,0,2.1,0.1,2.6,0.2c0.7,0.2,1.2,0.5,1.7,1c0.4,0.5,0.6,1.1,0.6,1.9c0,0.6-0.1,1.2-0.4,1.6
					c-0.3,0.5-0.7,0.8-1.3,1.1c-0.5,0.2-1,0.4-1.4,0.4l3.3,5.3H259l-3.3-5.3h-1.5v5.3h-1.1V477.9z M254.2,479v3.9l2,0
					c0.8,0,1.3-0.1,1.7-0.2c0.4-0.1,0.6-0.4,0.9-0.7c0.2-0.3,0.3-0.7,0.3-1.1c0-0.4-0.1-0.7-0.3-1c-0.2-0.3-0.5-0.5-0.8-0.7
					c-0.3-0.1-0.9-0.2-1.7-0.2H254.2z"/>
				<path d="M268.7,477.9h1.1v11.4h-1.1V477.9z"/>
				<path d="M278.6,477.9h6.5v1.1h-5.4v3.6h3.3v1.1h-3.3v4.5h5.3v1.1h-6.5V477.9z"/>
				<path d="M307.7,477.9l5.3,11.4h-1.2l-1.8-3.8h-4.9l-1.8,3.8h-1.3l5.4-11.4H307.7z M307.6,480.3l-2,4.1h3.9L307.6,480.3z"/>
				<path d="M321,477.9h2.3c1.3,0,2.1,0.1,2.6,0.2c0.7,0.2,1.2,0.5,1.7,1c0.4,0.5,0.6,1.1,0.6,1.9c0,0.6-0.1,1.2-0.4,1.6
					s-0.7,0.8-1.3,1.1c-0.5,0.2-1,0.4-1.4,0.4l3.3,5.3h-1.4l-3.3-5.3h-1.5v5.3H321V477.9z M322.2,479v3.9l2,0c0.8,0,1.3-0.1,1.7-0.2
					s0.7-0.4,0.9-0.7s0.3-0.7,0.3-1.1c0-0.4-0.1-0.7-0.3-1c-0.2-0.3-0.5-0.5-0.8-0.7c-0.3-0.1-0.9-0.2-1.7-0.2H322.2z"/>
				<path d="M335.1,479v-1.1h6.3v1.1h-2.5v10.3h-1.2V479H335.1z"/>
				<path d="M349,477.9h1.1v11.4H349V477.9z"/>
				<path d="M358,487l1-0.6c0.7,1.3,1.5,1.9,2.4,1.9c0.4,0,0.7-0.1,1.1-0.3c0.3-0.2,0.6-0.4,0.8-0.7s0.3-0.6,0.3-1
					c0-0.4-0.1-0.8-0.4-1.1c-0.4-0.5-1-1-2-1.6c-1-0.7-1.5-1.2-1.8-1.6c-0.4-0.5-0.6-1.1-0.6-1.7c0-0.5,0.1-0.9,0.4-1.4s0.6-0.7,1-1
					c0.4-0.2,0.9-0.4,1.4-0.4c0.5,0,1,0.1,1.5,0.4c0.5,0.3,1,0.8,1.5,1.5l-0.9,0.7c-0.4-0.6-0.8-0.9-1.1-1.1c-0.3-0.2-0.6-0.3-1-0.3
					c-0.5,0-0.8,0.1-1.1,0.4s-0.4,0.6-0.4,1c0,0.2,0.1,0.5,0.2,0.7c0.1,0.2,0.3,0.5,0.6,0.8c0.1,0.1,0.6,0.5,1.5,1.1
					c1,0.7,1.7,1.3,2,1.8c0.4,0.5,0.5,1,0.5,1.6c0,0.8-0.3,1.5-0.9,2.2s-1.4,0.9-2.3,0.9c-0.7,0-1.3-0.2-1.9-0.6
					C358.9,488.5,358.4,487.9,358,487z"/>
				<path d="M377.6,477.9l5.3,11.4h-1.2l-1.8-3.8H375l-1.8,3.8H372l5.4-11.4H377.6z M377.5,480.3l-2,4.1h3.9L377.5,480.3z"/>
				<path d="M390.9,489.3v-11.4h0.2l7.6,8.7v-8.7h1.1v11.4h-0.3l-7.5-8.6v8.6H390.9z"/>
				<path d="M413.4,477.9l5.3,11.4h-1.2l-1.8-3.8h-4.9l-1.8,3.8h-1.3l5.4-11.4H413.4z M413.3,480.3l-2,4.1h3.9L413.3,480.3z"/>
				<path d="M426.6,477.9h1.1v10.3h4.4v1.1h-5.5V477.9z"/>
				<path d="M440.1,477.9h6.5v1.1h-5.4v3.6h3.3v1.1h-3.3v4.5h5.3v1.1h-6.5V477.9z"/>
			</g>
		</g>
		<g>
			<g>
				<g>
					<g>
						<path d="M285.2,368.3c2.7,3.9,1.2,9.6,1.2,9.6s-5.8-0.7-8.4-4.6c-2.7-3.9-1.2-9.6-1.2-9.6S282.6,364.4,285.2,368.3z"/>
					</g>
					<path d="M293.6,329.1l0,53.6c-0.4,5.8-2.9,10.9-7.1,15.1c-4.2,4.2-9.5,6.5-15,7v-4.6c4.3-0.5,8.4-2.3,11.7-5.6
						c3.6-3.5,5.6-7.4,5.8-12.3l0-52.5h0v-0.7c0-19.8-16.1-35.8-35.8-35.8c-19.8,0-35.8,16.1-35.8,35.8c0,19.5,15.7,35.4,35.1,35.8
						h0.3c4.8,0,9.6-1.8,13.2-5.4c7.3-7.3,7.2-19.5-0.3-27c-5.5-4.7-11.6-5.6-13.2-5.7c-1.5-0.1-11.4-1.4-17,9.3
						c0.2-0.8,4.2-13.7,17-13.9c6.2,0.2,12,2.7,16.4,7.1c9.3,9.3,9.4,24.3,0.3,33.4c-4.4,4.4-10,6.6-15.8,6.8h-0.9
						c-21.9-0.4-39.6-18.4-39.6-40.4c0-22.3,18.1-40.4,40.4-40.4C275.4,288.7,293.6,306.8,293.6,329.1L293.6,329.1z"/>
				</g>
				<g>
					<g>
						<path d="M306.9,368.3c-2.7,3.9-1.2,9.6-1.2,9.6s5.8-0.7,8.4-4.6c2.7-3.9,1.2-9.6,1.2-9.6S309.6,364.4,306.9,368.3z"/>
					</g>
					<path d="M298.6,329.1l0,53.6c0.4,5.8,2.9,10.9,7.1,15.1c4.2,4.2,9.5,6.5,15,7v-4.6c-4.3-0.5-8.4-2.3-11.7-5.6
						c-3.6-3.5-5.6-7.4-5.8-12.3l0-52.5h0v-0.7c0-19.8,16.1-35.8,35.8-35.8c19.8,0,35.8,16.1,35.8,35.8c0,19.5-15.7,35.4-35.1,35.8
						h-0.3c-4.8,0-9.6-1.8-13.2-5.4c-7.3-7.3-7.2-19.5,0.3-27c5.5-4.7,11.6-5.6,13.2-5.7c1.5-0.1,11.4-1.4,17,9.3
						c-0.2-0.8-4.2-13.7-17-13.9c-6.2,0.2-12,2.7-16.4,7.1c-9.3,9.3-9.4,24.3-0.3,33.4c4.4,4.4,10,6.6,15.8,6.8h0.9
						c21.9-0.4,39.6-18.4,39.6-40.4c0-22.3-18.1-40.4-40.4-40.4C316.7,288.7,298.6,306.8,298.6,329.1L298.6,329.1z"/>
				</g>
			</g>
		</g>
	</g>
</g>
</svg>
